Coordinates
version=1
nRows=8
nColumns=63
inDegrees=yes

Units are S.I. units (second, meters, Newtons, ...)
If the header above contains a line with 'inDegrees', this indicates whether rotational values are in degrees (yes) or radians (no).

endheader
time	pelvis_tilt	pelvis_list	pelvis_rotation	pelvis_tx	pelvis_ty	pelvis_tz	hip_flexion_r	hip_adduction_r	hip_rotation_r	knee_angle_r	knee_angle_r_beta	ankle_angle_r	subtalar_angle_r	mtp_angle_r	hip_flexion_l	hip_adduction_l	hip_rotation_l	knee_angle_l	knee_angle_l_beta	ankle_angle_l	subtalar_angle_l	mtp_angle_l	L5_S1_Flex_Ext	L5_S1_Lat_Bending	L5_S1_axial_rotation	L4_L5_Flex_Ext	L4_L5_Lat_Bending	L4_L5_axial_rotation	L3_L4_Flex_Ext	L3_L4_Lat_Bending	L3_L4_axial_rotation	L2_L3_Flex_Ext	L2_L3_Lat_Bending	L2_L3_axial_rotation	L1_L2_Flex_Ext	L1_L2_Lat_Bending	L1_L2_axial_rotation	L1_T12_Flex_Ext	L1_T12_Lat_Bending	L1_T12_axial_rotation	Abs_r3	Abs_r2	Abs_r1	Abs_t1	Abs_t2	neck_flexion	neck_bending	neck_rotation	arm_flex_r	arm_add_r	arm_rot_r	elbow_flex_r	pro_sup_r	wrist_flex_r	wrist_dev_r	arm_flex_l	arm_add_l	arm_rot_l	elbow_flex_l	pro_sup_l	wrist_flex_l	wrist_dev_l
      1.21666667	     -3.42223817	     -0.62541178	     79.23461344	      0.25856562	      1.04647974	      0.12031510	     -3.65296632	     -6.56694352	     -2.12291453	     11.63110209	      0.20300103	     27.24757176	      4.59672944	      0.00000000	     -6.27112919	      6.02021630	    -17.14907907	      5.07406770	      0.08855919	     33.75065152	      6.84929348	      0.00000000	     -0.43216774	     -0.39513291	      2.39549181	     -0.80257871	     -0.52552677	      2.54521005	     -0.71000838	     -0.96072616	      2.54521005	     -0.49392451	     -0.96072616	      2.09605533	     -0.40131096	     -0.80575503	      1.94633710	     -0.24694065	     -0.61206088	      1.79661886	     -3.08693095	     -4.46982251	     13.32300680	      0.00000000	      0.00000000	     27.54834154	     -2.34491226	     -5.81290700	      4.55039799	    -16.22811701	    161.16970353	      2.22282460	      3.69222790	     -7.43025082	     -4.86336119	     10.39857921	    -14.15369790	    161.13457553	      7.20491937	      3.05039834	     -6.05909668	    -10.34681202
      1.23333333	     -3.26472807	     -0.60756070	     79.12340808	      0.25843985	      1.04720135	      0.12278771	     -3.38979149	     -6.40839358	     -2.15227641	     11.92216826	      0.20808109	     27.08429840	      4.57127097	      0.00000000	     -6.12409717	      5.85702267	    -17.12302330	      5.04755314	      0.08809642	     34.01489064	      7.05080892	      0.00000000	     -0.48257276	     -0.35974868	      2.33753645	     -0.89618588	     -0.47846575	      2.48363248	     -0.79281879	     -0.87469294	      2.48363248	     -0.55153241	     -0.87469294	      2.04534439	     -0.44811707	     -0.73359951	      1.89924836	     -0.27574208	     -0.55725071	      1.75315234	     -3.44696899	     -4.06954903	     13.00067646	      0.00000000	      0.00000000	     27.34325843	     -2.69911629	     -5.42404166	      4.37940988	    -16.43002436	    161.13707456	      1.74893255	      3.42101719	     -7.02708366	     -5.19444756	     10.21024163	    -14.13821251	    161.67686550	      6.48503794	      3.42944594	     -6.02804652	    -10.60729934
      1.25000000	     -3.02022649	     -0.64599848	     78.98500642	      0.25811353	      1.04787373	      0.12481121	     -3.20492232	     -6.16266772	     -2.16169547	     12.00140489	      0.20946403	     26.79073488	      4.64163017	      0.00000000	     -6.02687715	      5.63520076	    -17.12353640	      4.88291593	      0.08522296	     34.13610683	      7.19617362	      0.00000000	     -0.51866575	     -0.30825394	      2.32774179	     -0.96321416	     -0.40997774	      2.47322566	     -0.85211595	     -0.74948863	      2.47322566	     -0.59278308	     -0.74948863	      2.03677407	     -0.48163301	     -0.62859143	      1.89129021	     -0.29636561	     -0.47748535	      1.74580635	     -3.70477755	     -3.48703020	     12.94620154	      0.00000000	      0.00000000	     27.04172069	     -3.07710136	     -4.94388812	      4.08731491	    -16.66777005	    161.49121828	      1.36159462	      3.25919140	     -6.43732106	     -5.63189938	     10.08082154	    -13.96913552	    162.25773191	      5.65973714	      3.45088748	     -6.01118519	    -11.27220110
      1.26666667	     -2.70159647	     -0.65776566	     78.76713061	      0.25763521	      1.04858611	      0.12632733	     -3.15704627	     -5.87323456	     -2.22247325	     11.91152180	      0.20789527	     26.38062552	      4.86025085	      0.00000000	     -6.07802160	      5.39433573	    -17.08693243	      4.56850134	      0.07973539	     34.05917858	      7.09018037	      0.00000000	     -0.55291209	     -0.24477549	      2.36894794	     -1.02681303	     -0.32555140	      2.51700718	     -0.90837927	     -0.59514713	      2.51700718	     -0.63192322	     -0.59514713	      2.07282944	     -0.51343416	     -0.49914618	      1.92477020	     -0.31593397	     -0.37915724	      1.77671095	     -3.94939573	     -2.76894931	     13.17537773	      0.00000000	      0.00000000	     26.65466911	     -3.56930040	     -4.44558139	      3.78956115	    -16.94628168	    164.39790226	      0.99963585	      3.08853684	     -5.99447657	     -5.96232597	      9.89727046	    -13.60870904	    165.08025207	      4.29243874	      2.69055736	     -6.56899863	    -12.29363772
      1.28333333	     -2.29982834	     -0.70814443	     78.64245554	      0.25689599	      1.04926996	      0.12741097	     -3.18196665	     -5.48850656	     -2.31026397	     11.68038107	      0.20386111	     25.98518826	      5.15259873	      0.00000000	     -6.16863312	      5.07754295	    -16.90537532	      4.21561541	      0.07357637	     33.81884309	      6.65905130	      0.00000000	     -0.57795020	     -0.16964819	      2.43669143	     -1.07331131	     -0.22563209	      2.58898464	     -0.94951438	     -0.41248261	      2.58898464	     -0.66053928	     -0.41248261	      2.13210500	     -0.53668455	     -0.34594659	      1.97981178	     -0.33024074	     -0.26278505	      1.82751857	     -4.12824046	     -1.91909426	     13.55214670	      0.00000000	      0.00000000	     26.14001469	     -4.47527118	     -4.19969930	      3.31156062	    -17.24746673	    165.16935995	      0.87616845	      3.19836979	     -5.03566422	     -6.53112512	      9.73354843	    -13.29461929	    165.40325449	      3.09833103	      2.32007740	     -7.93906763	    -14.19571975
      1.30000000	     -1.81806676	     -0.86649718	     78.65212225	      0.25583985	      1.04992381	      0.12801903	     -3.21771926	     -4.99723587	     -2.51038673	     11.26847687	      0.19667202	     25.59260351	      5.48133346	      0.00000000	     -6.18546166	      4.65073692	    -16.76811125	      3.91342517	      0.06830215	     33.53273780	      6.24194449	      0.00000000	     -0.58044652	     -0.08320884	      2.50092428	     -1.07794724	     -0.11066776	      2.65723205	     -0.95361560	     -0.20231398	      2.65723205	     -0.66339233	     -0.20231398	      2.18830874	     -0.53900264	     -0.16967947	      2.03200098	     -0.33166714	     -0.12889050	      1.87569321	     -4.14607148	     -0.94127508	     13.90939056	      0.00000000	      0.00000000	     25.49820823	     -5.65298274	     -3.99457747	      2.72635463	    -17.53406998	    165.52178806	      0.83971459	      3.17768553	     -3.71583164	     -7.11532308	      9.61067277	    -12.95608065	    165.49916514	      1.76694886	      1.96193342	     -9.97666722	    -16.62962172
      1.31666667	     -1.37831297	     -1.00509989	     78.93489238	      0.25421101	      1.05081879	      0.12844663	     -3.30436673	     -4.67929931	     -4.36994808	     10.86177471	      0.18957373	     25.57594001	      7.76188143	      0.00000000	     -6.24342433	      4.35854181	    -13.72301913	      3.51067682	      0.06127287	     32.46089066	      2.11826309	      0.00000000	     -0.58194575	     -0.00247023	      2.53359931	     -1.08073146	     -0.00328541	      2.69194926	     -0.95607868	     -0.00600613	      2.69194926	     -0.66510580	     -0.00600613	      2.21689939	     -0.54039483	     -0.00503730	      2.05854944	     -0.33252380	     -0.00382639	      1.90019948	     -4.15678033	     -0.02794378	     14.09111926	      0.00000000	      0.00000000	     24.69521538	     -7.16723223	     -4.19168723	      2.04592225	    -17.73753293	    164.11350080	      0.89827154	      2.81216365	     -1.93307667	     -7.64703543	      9.91629419	    -12.60801928	    165.20531463	      0.95785189	      1.73467968	    -13.77756991	    -19.34799462
      1.33333333	     -0.87160087	     -1.18820168	     79.30815064	      0.25275692	      1.05206701	      0.12900277	     -3.40559628	     -4.11812965	     -4.83810157	     10.26493421	      0.17915690	     25.22722633	      8.07725667	      0.00000000	     -6.16747633	      3.82464995	    -13.45336999	      3.38557401	      0.05908941	     32.03840221	      1.84065790	      0.00000000	     -0.57125306	      0.08183489	      2.53835580	     -1.06087405	      0.10884040	      2.69700303	     -0.93851164	      0.19897335	      2.69700303	     -0.65288512	      0.19897335	      2.22106132	     -0.53046559	      0.16687770	      2.06241409	     -0.32641400	      0.12676224	      1.90376685	     -4.08040345	      0.92573262	     14.11757344	      0.00000000	      0.00000000	     23.71982038	     -8.78073690	     -4.46705846	      1.46218326	    -17.82880902	    162.94352316	      0.95056041	      2.27929830	     -0.07571609	     -8.10513566	     10.64200363	    -12.25334967	    164.02364831	      0.56277112	      1.54545967	    -17.69163040	    -22.02862576
